<?xml version="1.0" encoding="iso-8859-1"?>
<!-- Generator: Adobe Illustrator 19.0.0, SVG Export Plug-In . SVG Version: 6.00 Build 0)  -->
<svg version="1.1" id="Capa_1" xmlns="http://www.w3.org/2000/svg" xmlns:xlink="http://www.w3.org/1999/xlink" x="0px" y="0px"
	 viewBox="0 0 512 512" style="enable-background:new 0 0 512 512;" xml:space="preserve">
<path style="fill:#3B4145;" d="M256,0l-61.811,256L256,512c141.385,0,256-114.615,256-256S397.385,0,256,0z"/>
<path style="fill:#525A61;" d="M0,256c0,141.385,114.615,256,256,256V0C114.615,0,0,114.615,0,256z"/>
<path style="fill:#DEF1FF;" d="M256,30.905v450.189c124.316,0,225.095-100.778,225.095-225.095S380.316,30.905,256,30.905z"/>
<path style="fill:#FFFFFF;" d="M450.189,256c0-124.316-86.941-225.095-194.189-225.095C131.684,30.905,30.905,131.684,30.905,256
	S131.684,481.095,256,481.095C363.248,481.095,450.189,380.316,450.189,256z"/>
<path style="fill:#3B4145;" d="M256,395.59c-39.479,0-71.598-32.119-71.598-71.598V188.008c0-39.479,32.119-71.598,71.598-71.598
	s71.598,32.119,71.598,71.598c0,11.379-9.224,20.604-20.604,20.604s-20.604-9.224-20.604-20.604c0-16.758-13.632-30.39-30.39-30.39
	s-30.39,13.632-30.39,30.39v135.984c0,16.758,13.632,30.39,30.39,30.39s30.39-13.632,30.39-30.39
	c0-11.379,9.224-20.604,20.604-20.604s20.604,9.224,20.604,20.604C327.598,363.471,295.479,395.59,256,395.59z"/>
<g>
</g>
<g>
</g>
<g>
</g>
<g>
</g>
<g>
</g>
<g>
</g>
<g>
</g>
<g>
</g>
<g>
</g>
<g>
</g>
<g>
</g>
<g>
</g>
<g>
</g>
<g>
</g>
<g>
</g>
</svg>
